<?xml version="1.0" encoding="utf-8"?>
<!-- Generator: Adobe Illustrator 18.0.0, SVG Export Plug-In . SVG Version: 6.00 Build 0)  -->
<!DOCTYPE svg PUBLIC "-//W3C//DTD SVG 1.1//EN" "http://www.w3.org/Graphics/SVG/1.1/DTD/svg11.dtd">
<svg version="1.1" id="Layer_1" xmlns="http://www.w3.org/2000/svg" xmlns:xlink="http://www.w3.org/1999/xlink" x="0px" y="0px"
	 viewBox="0 0 559.4 559.4" enable-background="new 0 0 559.4 559.4" xml:space="preserve">
<rect x="0" y="0" fill="#F7931E" width="559.4" height="559.4"/>
<g>
	<g>
		<g>
			<path fill="#FFFFFF" d="M112.9,125.5h23.9V236c-12.2,2.3-21.2,3.3-31,3.3c-29.1,0-44.3-13.2-44.3-38.4
				c0-24.3,16.1-40.1,41.1-40.1c3.9,0,6.8,0.3,10.4,1.2L112.9,125.5L112.9,125.5z M112.9,181.1c-2.8-0.9-5.1-1.2-8.1-1.2
				c-12.1,0-19.1,7.4-19.1,20.5c0,12.7,6.7,19.7,18.9,19.7c2.6,0,4.8-0.2,8.2-0.6L112.9,181.1z"/>
			<path fill="#FFFFFF" d="M174.8,162.4v55.3c0,19.1-1.4,28.2-5.6,36.1c-3.9,7.6-9,12.4-19.5,17.7l-22.2-10.5
				c10.5-5,15.7-9.3,18.9-16c3.4-6.8,4.5-14.7,4.5-35.5v-47.1H174.8z M150.9,125.6h23.9v24.5h-23.9V125.6z"/>
			<path fill="#FFFFFF" d="M189.2,167.8c10.5-5,20.6-7.1,31.6-7.1c12.2,0,20.3,3.3,23.9,9.6c2,3.6,2.6,8.2,2.6,18.1v48.5
				c-10.7,1.6-24.2,2.6-34.1,2.6c-20,0-29-7-29-22.5c0-16.7,11.9-24.5,41.2-27v-5.3c0-4.3-2.2-5.9-8.2-5.9c-8.8,0-18.8,2.5-28.1,7.3
				L189.2,167.8L189.2,167.8z M226.5,205.8c-15.8,1.6-20.9,4-20.9,10.2c0,4.6,2.9,6.8,9.5,6.8c3.6,0,6.8-0.3,11.5-1.1L226.5,205.8
				L226.5,205.8z"/>
			<path fill="#FFFFFF" d="M258.9,166.1c14.1-3.7,25.7-5.4,37.5-5.4c12.2,0,21.1,2.8,26.4,8.2c5,5.1,6.5,10.7,6.5,22.6v46.8h-23.9
				v-45.9c0-9.1-3.1-12.6-11.6-12.6c-3.3,0-6.2,0.3-11,1.7v56.7h-23.9L258.9,166.1L258.9,166.1z"/>
			<path fill="#FFFFFF" d="M338.6,251.3c8.4,4.3,16.7,6.4,25.6,6.4c15.7,0,22.3-6.4,22.3-21.5c0-0.2,0-0.3,0-0.5
				c-4.6,2.3-9.3,3.3-15.5,3.3c-20.9,0-34.3-13.8-34.3-35.7c0-27.1,19.7-42.5,54.6-42.5c10.2,0,19.7,1.1,31.2,3.4l-8.2,17.2
				c-6.4-1.2-0.5-0.2-5.3-0.6v2.5l0.3,10.1l0.2,13c0.2,3.3,0.2,6.5,0.3,9.8c0,2.9,0,4.3,0,6.5c0,20.5-1.7,30.1-6.8,38
				c-7.4,11.6-20.3,17.4-38.6,17.4c-9.3,0-17.4-1.4-25.7-4.7L338.6,251.3L338.6,251.3z M386,180c-0.3,0-0.6,0-0.8,0h-1.7
				c-4.6-0.2-10.1,1.1-13.8,3.4c-5.7,3.3-8.7,9.1-8.7,17.5c0,11.9,5.9,18.8,16.4,18.8c3.3,0,5.9-0.6,9-1.6v-1.7V210
				c0-2.8-0.2-5.9-0.2-9.1l-0.2-11l-0.2-7.9L386,180L386,180z"/>
			<path fill="#FFFFFF" d="M459.5,160.3c23.9,0,38.4,15,38.4,39.4c0,25-15.2,40.6-39.4,40.6c-23.9,0-38.6-15-38.6-39.2
				C420,176,435.2,160.3,459.5,160.3z M459,221.1c9.1,0,14.6-7.6,14.6-20.8c0-13-5.3-20.8-14.4-20.8c-9.5,0-14.9,7.6-14.9,20.8
				C444.3,213.5,449.7,221.1,459,221.1z"/>
		</g>
	</g>
	<g>
		<path fill="#FFFFFF" d="M174.1,478.4c-3,0.3-6,0.1-9-0.7c-3-0.8-5.6-1.9-8-3.4s-4.2-3.3-5.5-5.5s-1.8-4.5-1.3-6.9
			c2.2,0,4.2,0.4,5.9,1.3c1.7,0.9,3.4,1.9,5.1,3c1.7,1.1,3.5,2.1,5.4,3c1.9,0.9,4.2,1.3,6.8,1.3c6.4,0,11.8-1.4,16.2-4.2
			c4.4-2.8,7.9-6.4,10.5-11c2.7-4.5,4.6-9.7,5.7-15.4c1.2-5.7,1.7-11.5,1.7-17.5c0-1.6-0.1-4-0.2-7.3s-0.4-7.1-0.6-11.2
			c-0.2-4.2-0.5-8.5-0.7-13.1c-0.3-4.6-0.6-9-0.8-13.1c-0.3-4.2-0.6-7.9-0.8-11.2c-0.3-3.3-0.5-5.8-0.7-7.3c-0.9,2.2-2,4.9-3.3,8.1
			c-1.3,3.2-2.9,6.6-4.6,10.1c-1.7,3.5-3.7,7.1-5.8,10.5s-4.6,6.6-7.2,9.4c-2.7,2.8-5.6,5-8.7,6.7s-6.5,2.6-10,2.6
			c-1.9,0-3.3-0.9-4.4-2.8c-1.1-1.9-1.9-4-2.4-6.5c-0.6-2.4-0.9-4.8-1.1-7.2c-0.2-2.4-0.2-4.1-0.2-5.1c-0.6-7.1-0.6-14.1,0-21
			c0.6-6.9,1.7-13.4,3.4-19.4c1.7-6,4-11.4,6.8-16.2c2.8-4.8,6.3-8.5,10.4-11.2c4.1-2.7,8.8-4.3,14-4.6c5.3-0.4,11.1,0.8,17.7,3.6
			c1.8-0.2,3,0.8,3.6,3c0.6,2.2,0.9,4.9,0.8,8.1c-0.1,3.2-0.2,6.6-0.6,10.1c-0.3,3.5-0.6,6.5-0.7,9c0,5.8,0.2,11.5,0.7,17.3
			c0.4,5.8,1,11.5,1.6,17.2c0.6,5.7,1.1,11.4,1.6,17.1c0.4,5.7,0.7,11.4,0.7,17.2c0,6.6-0.7,13.6-2,21c-1.3,7.4-3.6,14.2-6.9,20.4
			c-3.3,6.3-7.6,11.4-12.9,15.5C188.7,476.4,182,478.4,174.1,478.4z M164,381.3c0,1.1,0,2.5,0.1,4.1c0.1,1.6,0.3,3.2,0.7,4.6
			c0.4,1.5,1,2.8,1.8,3.8c0.8,1.1,2,1.6,3.6,1.6c3.1,0,6-1.4,8.6-4.2s5.1-6.4,7.4-10.8c2.3-4.4,4.3-9.2,6.1-14.5s3.4-10.5,4.6-15.6
			c1.3-5.1,2.2-9.7,2.9-13.9s1-7.2,1-9.2c-6.8-2.4-12.5-2.4-17.3,0.2c-4.8,2.5-8.6,6.6-11.5,12c-2.9,5.5-5.1,12-6.4,19.4
			S163.7,373.8,164,381.3z"/>
		<path fill="#FFFFFF" d="M230,297.3c-0.8,0-1.7-0.3-2.7-0.8c-1-0.6-1.9-1.2-2.6-2.1c-0.7-0.8-1.2-1.7-1.5-2.7
			c-0.3-0.9-0.1-1.7,0.6-2.4c0.4-1.3,1.3-2.5,2.7-3.7c1.3-1.1,2.7-1.9,4.2-2.2c1.4-0.4,2.7-0.3,3.7,0.2c1.1,0.5,1.6,1.7,1.6,3.7
			c0,1-0.1,2.1-0.2,3.2s-0.5,2.2-1,3.2s-1.1,1.8-1.9,2.5C232.1,297,231.1,297.3,230,297.3z M237,404.2c-0.6,0-1.3-0.1-2.2-0.3
			c-0.9-0.2-1.8-0.6-2.7-1c-0.9-0.4-1.6-1-2.2-1.6c-0.6-0.6-0.9-1.3-0.9-2.1l-0.2-79.9c0-0.8,0.3-1.5,0.9-2.1
			c0.6-0.6,1.4-1.1,2.2-1.6c0.9-0.4,1.8-0.8,2.7-1c0.9-0.2,1.6-0.3,2.2-0.3L237,404.2z"/>
		<path fill="#FFFFFF" d="M248.8,336.2c-0.3-1.4-0.8-3.3-1.3-5.5c-0.6-2.2-1.1-4.5-1.5-6.8c-0.4-2.3-0.7-4.5-0.7-6.6
			c0-2.1,0.3-3.8,1-5.1c0.7-1.3,1.8-2,3.5-2.2s4,0.6,7,2.2c0.2,1.1,0.5,3,0.9,5.6c0.4,2.6,0.8,5.4,1.2,8.3c0.4,2.9,0.8,5.7,1.2,8.3
			c0.3,2.6,0.5,4.5,0.5,5.6c2-4.4,4.5-8.6,7.6-12.6c3.1-4,6.7-7.5,10.8-10.5c4.1-3,8.6-5.4,13.4-7.1c4.9-1.8,10.1-2.7,15.6-2.7
			l-1.7,9.5c-7.1,1.2-13.7,4.2-19.8,9c-6.1,4.8-11.3,10.9-15.4,18.4c-4.1,7.5-6.8,16.3-8.2,26.4c-1.4,10.1-0.9,21,1.6,32.9
			l-10.5,2.2c-0.1-0.1-0.3-1.5-0.5-4.1c-0.2-2.6-0.5-5.9-0.8-10c-0.3-4.1-0.7-8.7-1-13.8c-0.3-5.1-0.7-10.2-1-15.3
			c-0.3-5.1-0.7-9.9-1.1-14.5C249.3,343.1,249,339.3,248.8,336.2z"/>
		<path fill="#FFFFFF" d="M315.5,260l9.3-1.3c0.4,5.9,0.9,12.8,1.2,20.8c0.4,8,0.7,16.4,1,25.2c0.3,8.9,0.5,17.8,0.7,27
			c0.2,9.1,0.4,17.8,0.6,26c0.2,8.2,0.4,15.6,0.6,22.2c0.2,6.6,0.5,11.8,0.8,15.5c0,1.6-0.3,3-0.8,4.4c-0.6,1.4-1.2,2.4-2,3
			c-0.8,0.6-1.7,0.7-2.7,0.2s-1.9-1.7-2.7-3.7L315.5,260z"/>
		<path fill="#FFFFFF" d="M337.6,371.7c0.9-1.9,1.9-3.1,3.2-3.6c1.2-0.5,2.8-0.6,4.8-0.4c4,3.7,8.1,7.1,12.2,10.3
			c4.2,3.2,8.5,6,13,8.3c4.5,2.3,9.3,4.2,14.3,5.6c5,1.4,10.3,2.1,15.9,2.1c1.1,0,2.4,0,3.8,0c1.4,0,2.7-0.2,3.9-0.6
			c1.2-0.4,2.2-1,3-1.9c0.8-0.9,1.2-2.2,1.2-3.8c-0.4-3.3-2.2-6.2-5.2-8.7c-3-2.5-6.7-4.9-11-7.1c-4.3-2.3-8.9-4.6-13.8-7
			c-4.9-2.4-9.3-5.1-13.3-8.1c-4-3-7.2-6.5-9.6-10.5c-2.4-3.9-3.4-8.7-2.8-14.2c0-3.1,1-5.9,3-8.3c2-2.4,4.4-4.5,7.3-6.2
			c2.9-1.7,5.9-3,9-4c3.2-0.9,5.9-1.4,8.4-1.4c4.8,0,9.6,0.7,14.5,2.1c4.9,1.4,9.3,3.4,13.2,6.1l-4.5,6.3c-2-1.7-4.5-2.9-7.4-3.7
			c-2.9-0.8-6-1.3-9-1.3c-3.1-0.1-6.1,0.2-9.1,0.7c-3,0.6-5.6,1.4-7.9,2.6c-2.3,1.2-4,2.5-5.1,4.2c-1.2,1.6-1.5,3.3-0.9,5.2
			c0,5.2,1.4,9.4,4.2,12.7c2.8,3.3,6.3,6.1,10.5,8.5c4.2,2.4,8.7,4.5,13.6,6.4c4.9,1.9,9.4,4,13.6,6.4c4.2,2.4,7.7,5.2,10.5,8.5
			c2.8,3.3,4.2,7.4,4.2,12.5c0,3.2-0.5,5.8-1.6,7.6c-1.1,1.9-2.4,3.3-4.2,4.3c-1.7,1-3.8,1.7-6.1,2c-2.4,0.3-4.9,0.5-7.6,0.5
			c-6,0-12.2-0.8-18.6-2.3c-6.4-1.5-12.7-3.7-18.8-6.5c-6.1-2.8-11.8-6.1-17.1-10C345.9,380.8,341.4,376.4,337.6,371.7z"/>
	</g>
</g>
</svg>
